# xmcd
# 
# Track frame offsets:
#     150
#     16614
#     28829
#     42173
#     60988
# 
# Disc length: 1063
# 
# Revision: 0
# Processed by: cddbd v1.5.2PL0 Copyright (c) Steve Scherf et al.
# Submitted via: fre:ac v1.0.17
# 
DISCID=2f042505
DTITLE=Dallas - Over The Edge EP
DYEAR=2012
DGENRE=Rock
TTITLE0=This Love
TTITLE1=The Devil Is Rock'n'Roll
TTITLE2=Bring The Light
TTITLE3=Open Your Heart
TTITLE4=I Close My Eyes
EXTD=
EXTT0=
EXTT1=
EXTT2=
EXTT3=
EXTT4=
PLAYORDER=
